<svg xmlns="http://www.w3.org/2000/svg" xmlns:xlink="http://www.w3.org/1999/xlink" width="274" height="66" viewBox="0 0 274 66">
  <defs>
    <style>
      .cls-1 {
        clip-path: url(#clip-razr-40-ultra-pdp-lockup-ffffff-);
      }

      .cls-2 {
        fill: #000;
      }
    </style>
    <clipPath id="clip-razr-40-ultra-pdp-lockup-ffffff-">
      <rect width="274" height="66"/>
    </clipPath>
  </defs>
  <g id="razr-40-ultra-pdp-lockup-ffffff-" class="cls-1">
    <g id="Group_6730" data-name="Group 6730" transform="translate(17529 16561.9)">
      <path id="Path_16993" data-name="Path 16993" class="cls-2" d="M-1547.547-352.1a33.086,33.086,0,0,0-33.153,33,33.086,33.086,0,0,0,33.153,33,33.151,33.151,0,0,0,33.23-33A33,33,0,0,0-1547.547-352.1Zm20.9,48.7c-2.986-9.724-6.814-15.7-11.255-15.7-3.6,0-6.891,3.981-9.647,10.872-2.756-6.814-6.049-10.872-9.647-10.872-4.364,0-8.193,5.9-11.179,15.7h-2.22l13.246-40.427,9.877,30.167,9.877-30.167,13.246,40.427Z" transform="translate(-15948.3 -16209.801)"/>
      <path id="Path_16994" data-name="Path 16994" class="cls-2" d="M-1328.2-329.216a2.754,2.754,0,0,0-2.6-1.684c-7.121,0-12.251,2.45-15.39,7.2-1.991,3.063-2.91,6.585-2.91,11.255V-300.5a2.811,2.811,0,0,0,2.756,2.833,2.745,2.745,0,0,0,2.756-2.756v-11.944c0-3.445.613-6.049,1.991-8.116,1.991-3.063,5.36-4.517,10.26-4.671h.459a2.826,2.826,0,0,0,2.833-2.833,2.8,2.8,0,0,0-.153-1.225Z" transform="translate(-16002.571 -16214.769)"/>
      <path id="Path_16995" data-name="Path 16995" class="cls-2" d="M-1446-329.216a2.754,2.754,0,0,0-2.6-1.684c-7.121,0-12.251,2.45-15.39,7.2-1.991,3.063-2.91,6.585-2.91,11.255V-300.5a2.826,2.826,0,0,0,2.833,2.833,2.745,2.745,0,0,0,2.756-2.756v-11.944c0-3.445.613-6.049,1.991-8.116,1.991-3.063,5.36-4.517,10.26-4.671h.459a2.826,2.826,0,0,0,2.833-2.833,12.022,12.022,0,0,0-.23-1.225Z" transform="translate(-15974.967 -16214.769)"/>
      <path id="Path_16996" data-name="Path 16996" class="cls-2" d="M-1422.262-330.9a16.567,16.567,0,0,0-16.538,16.538,16.567,16.567,0,0,0,16.538,16.538h13.705a2.745,2.745,0,0,0,2.756-2.756v-13.782A16.453,16.453,0,0,0-1422.262-330.9Zm10.949,16.538v8.958a2.2,2.2,0,0,1-.536,1.378,1.845,1.845,0,0,1-1.378.536h-9.035a11.01,11.01,0,0,1-8.039-3.522,10.93,10.93,0,0,1-2.91-8.269,11.014,11.014,0,0,1,10.183-10.183,10.742,10.742,0,0,1,8.5,3.216,11.525,11.525,0,0,1,3.216,7.886Z" transform="translate(-15981.552 -16214.769)"/>
      <path id="Path_16997" data-name="Path 16997" class="cls-2" d="M-1377.809-307.777l.919-1.225c3.9-5.207,13.016-17.3,13.169-17.457a2.543,2.543,0,0,0,.536-1.608,2.811,2.811,0,0,0-2.756-2.833h-20.367a2.826,2.826,0,0,0-2.833,2.833,2.445,2.445,0,0,0,.23,1.072,2.851,2.851,0,0,0,2.527,1.684h13.629a.549.549,0,0,1,.459.842l-2.68,3.445c-5.666,7.58-13.935,18.529-14.318,19.065a2.516,2.516,0,0,0-.306,1.3,2.811,2.811,0,0,0,2.756,2.833h20.75a2.811,2.811,0,0,0,2.833-2.756,2.7,2.7,0,0,0-.23-1.072,2.823,2.823,0,0,0-2.6-1.761h-14.088a.549.549,0,0,1-.459-.842Z" transform="translate(-15993.081 -16214.769)"/>
      <path id="Path_16998" data-name="Path 16998" class="cls-2" d="M-1300.6-316.735h2.22v-3.139h2.067v-1.991h-2.067V-330.9h-1.914l-7.657,9.341-.153.153.536,1.531h6.968Zm-4.441-5.207,4.441-5.436v5.436Z" transform="translate(-16012.179 -16214.769)"/>
      <path id="Path_16999" data-name="Path 16999" class="cls-2" d="M-1279.479-323.926c0-4.211-2.527-7.274-5.972-7.274s-6.049,3.139-6.049,7.274h0c0,4.211,2.527,7.274,6.049,7.274C-1282.006-316.576-1279.479-319.715-1279.479-323.926Zm-9.724,0c0-2.527,1.3-5.13,3.675-5.13s3.675,2.68,3.675,5.13h0c0,2.527-1.225,5.13-3.675,5.13C-1287.9-318.72-1289.2-321.4-1289.2-323.926Z" transform="translate(-16016.068 -16214.698)"/>
      <path id="Path_17000" data-name="Path 17000" class="cls-2" d="M-1297.253-298.484c0,2.6-1.3,4.058-3.675,4.058s-3.675-1.455-3.675-4.135v-8.04h-2.3v8.193c0,3.828,2.3,6.2,5.972,6.2,3.752,0,5.972-2.374,5.972-6.278v-8.04h-2.3Z" transform="translate(-16012.46 -16220.463)"/>
      <path id="Path_17001" data-name="Path 17001" class="cls-2" d="M-1285.3-306.7h-2.3v14.165h9.8v-2.144h-7.5Z" transform="translate(-16016.982 -16220.439)"/>
      <path id="Path_17002" data-name="Path 17002" class="cls-2" d="M-1275.9-304.48h4.517v11.944h2.3V-304.48h4.441v-2.22H-1275.9Z" transform="translate(-16019.725 -16220.439)"/>
      <path id="Path_17003" data-name="Path 17003" class="cls-2" d="M-1247.168-302.336a3.983,3.983,0,0,0-1.149-2.91,5.7,5.7,0,0,0-4.058-1.455h-6.125v14.165h2.3v-5.207h3.216l3.9,5.207h2.833l-4.211-5.589A4.185,4.185,0,0,0-1247.168-302.336Zm-9.111,2.527v-4.671h3.752c1.914,0,3.063.842,3.063,2.3s-1.225,2.374-3.063,2.374Z" transform="translate(-16023.802 -16220.439)"/>
      <path id="Path_17004" data-name="Path 17004" class="cls-2" d="M-1233.854-306.8h-1.914l-6.432,14.241h2.374l1.608-3.522h6.814l1.531,3.522h2.45Zm-3.446,8.575,2.45-5.513,2.45,5.513Z" transform="translate(-16027.621 -16220.416)"/>
    </g>
  </g>
</svg>
