<svg xmlns="http://www.w3.org/2000/svg" xmlns:xlink="http://www.w3.org/1999/xlink" width="227" height="67" viewBox="0 0 227 67">
  <defs>
    <clipPath id="clip-Moto-G62-5G-lockup-ffffff">
      <rect width="227" height="67"/>
    </clipPath>
  </defs>
  <g id="Moto-G62-5G-lockup-ffffff" clip-path="url(#clip-Moto-G62-5G-lockup-ffffff)">
    <g id="Group_4397" data-name="Group 4397" transform="translate(-1778.9 -1291)">
      <g id="Group_4343" data-name="Group 4343" transform="translate(1778.9 1291)">
        <path id="Path_13849" data-name="Path 13849" d="M-173.521,61.72A12.494,12.494,0,0,1-186.046,49.2a12.494,12.494,0,0,1,12.525-12.525A12.494,12.494,0,0,1-161,49.2,12.542,12.542,0,0,1-173.521,61.72m12.6-22.333A16.055,16.055,0,0,0-183.4,36.6,16.055,16.055,0,0,0-186.2,59.079a16.055,16.055,0,0,0,22.484,2.792,19.059,19.059,0,0,0,2.792-2.716v3.772c0,9.054-5.734,13.656-13.807,13.656a23.16,23.16,0,0,1-11.619-3.169l-1.584,2.943a26.4,26.4,0,0,0,13.128,3.4c10.035,0,17.278-5.96,17.278-16.674V33.2h-3.4c0,2.113,0,4.225,0,6.187" transform="translate(337.849 -26.032)" fill="#fff"/>
        <g id="Group_4342" data-name="Group 4342" transform="translate(0 0)">
          <path id="Path_13850" data-name="Path 13850" d="M-261.575,56.52h1.283v6.036h-1.283A12.542,12.542,0,0,1-274.1,50.032V23.7h6.036v7.847h7.771v6.036h-7.771V50.032a6.44,6.44,0,0,0,6.489,6.489" transform="translate(358.603 -23.7)" fill="#fff"/>
          <path id="Path_13851" data-name="Path 13851" d="M-341.811,45.819V64.907h-6.036V45.819a6.569,6.569,0,0,0-6.564-6.564,6.569,6.569,0,0,0-6.564,6.564V64.907h-6.036V45.819a6.554,6.554,0,0,0-6.413-6.64,6.554,6.554,0,0,0-6.64,6.413v19.24H-386.1V45.819a12.542,12.542,0,0,1,12.525-12.525,12.616,12.616,0,0,1,9.582,4.376,12.559,12.559,0,0,1,17.731-1.358,12.415,12.415,0,0,1,4.451,9.507" transform="translate(386.1 -26.051)" fill="#fff"/>
          <path id="Path_13852" data-name="Path 13852" d="M-305.929,33.4A16.036,16.036,0,0,0-322,49.471a16.036,16.036,0,0,0,16.071,16.071,16.036,16.036,0,0,0,16.071-16.071A16.084,16.084,0,0,0-305.929,33.4m0,26.105a10.03,10.03,0,0,1-10.035-10.035,10.03,10.03,0,0,1,10.035-10.035,10.079,10.079,0,0,1,10.035,10.035h0a10.079,10.079,0,0,1-10.035,10.035" transform="translate(370.363 -26.081)" fill="#fff"/>
          <path id="Path_13853" data-name="Path 13853" d="M-237.129,33.4A16.036,16.036,0,0,0-253.2,49.471a16.036,16.036,0,0,0,16.071,16.071,16.036,16.036,0,0,0,16.071-16.071A16.132,16.132,0,0,0-237.129,33.4m0,26.105a10.03,10.03,0,0,1-10.035-10.035,10.03,10.03,0,0,1,10.035-10.035,10.079,10.079,0,0,1,10.035,10.035h0a10.079,10.079,0,0,1-10.035,10.035" transform="translate(353.472 -26.081)" fill="#fff"/>
          <g id="Group_4341" data-name="Group 4341" transform="translate(0.151 50.098)">
            <g id="Group_4340" data-name="Group 4340">
              <path id="Path_13854" data-name="Path 13854" d="M-385.9,104.509l1.207-1.358a7.042,7.042,0,0,0,4.678,2.263,3.613,3.613,0,0,0,3.923-3.622v-.075c0-2.037-1.66-3.4-4.074-3.4a7.5,7.5,0,0,0-3.4.905l-1.207-.83.453-8h9.431v1.735h-7.771l-.377,5.206a7.1,7.1,0,0,1,3.244-.754c3.169,0,5.659,1.886,5.659,4.98v.075c0,3.169-2.414,5.357-5.81,5.357A7.528,7.528,0,0,1-385.9,104.509Z" transform="translate(385.9 -90.174)" fill="#fff"/>
              <path id="Path_13855" data-name="Path 13855" d="M-366.5,98.626h0a8.261,8.261,0,0,1,8.224-8.526,8.733,8.733,0,0,1,6.111,2.188l-1.207,1.434a6.825,6.825,0,0,0-4.98-1.886c-3.622,0-6.187,3.093-6.187,6.715v.075c0,3.923,2.49,6.79,6.489,6.79a7.439,7.439,0,0,0,4.678-1.66V99.682h-4.98v-1.66h6.715v6.489A9.8,9.8,0,0,1-358.2,107C-363.331,107.076-366.5,103.3-366.5,98.626Z" transform="translate(381.137 -90.1)" fill="#fff"/>
            </g>
          </g>
        </g>
      </g>
      <g id="Group_4344" data-name="Group 4344" transform="translate(1970.164 1297.941)">
        <path id="Path_13856" data-name="Path 13856" d="M-126.941,38.106a4.677,4.677,0,0,0-3.32,1.283c.226-2.263,1.358-4.376,3.471-4.376a4.2,4.2,0,0,1,2.867,1.207l.3.226,1.358-1.735-.3-.226a6.117,6.117,0,0,0-4.15-1.584c-3.471,0-5.885,3.018-5.885,7.545,0,2.565.528,4.15,1.735,5.357a5.119,5.119,0,0,0,3.772,1.434,4.844,4.844,0,0,0,5.131-4.829C-121.962,40.068-124.074,38.106-126.941,38.106Zm2.716,4.527a2.577,2.577,0,0,1-2.792,2.641,2.664,2.664,0,0,1-2.943-2.641,2.737,2.737,0,0,1,2.943-2.49,2.591,2.591,0,0,1,2.792,2.49Z" transform="translate(132.6 -32.9)" fill="#fff"/>
        <path id="Path_13857" data-name="Path 13857" d="M-112.878,45.1l2.792-2.49c2.414-2.113,3.471-3.4,3.471-5.432,0-2.414-1.886-4.074-4.451-4.074s-3.848,1.207-5.055,2.943l-.226.3,1.66,1.207.226-.3c1.132-1.509,1.962-2.113,3.244-2.113a2.141,2.141,0,0,1,2.263,2.113c0,1.132-.6,2.113-2.641,3.848l-4.9,4.3v1.66h9.959V45.1Z" transform="translate(128.647 -32.949)" fill="#fff"/>
      </g>
    </g>
  </g>
</svg>
